<?xml version="1.0" encoding="UTF-8"?>
<svg xmlns="http://www.w3.org/2000/svg" width="1000" height="800" viewBox="0 0 1000 800">
  <defs>
    <marker id="arrowhead" markerWidth="10" markerHeight="7" refX="0" refY="3.5" orient="auto">
      <polygon points="0 0, 10 3.5, 0 7" fill="#333"/>
    </marker>
    <linearGradient id="data-gradient" x1="0%" y1="0%" x2="100%" y2="0%">
      <stop offset="0%" style="stop-color:#4a90e2;stop-opacity:1" />
      <stop offset="100%" style="stop-color:#67b8e3;stop-opacity:1" />
    </linearGradient>
    <linearGradient id="api-gradient" x1="0%" y1="0%" x2="100%" y2="0%">
      <stop offset="0%" style="stop-color:#50c878;stop-opacity:1" />
      <stop offset="100%" style="stop-color:#82e0aa;stop-opacity:1" />
    </linearGradient>
    <linearGradient id="action-gradient" x1="0%" y1="0%" x2="100%" y2="0%">
      <stop offset="0%" style="stop-color:#e74c3c;stop-opacity:1" />
      <stop offset="100%" style="stop-color:#f1948a;stop-opacity:1" />
    </linearGradient>
    <linearGradient id="database-gradient" x1="0%" y1="0%" x2="100%" y2="0%">
      <stop offset="0%" style="stop-color:#8e44ad;stop-opacity:1" />
      <stop offset="100%" style="stop-color:#bb8fce;stop-opacity:1" />
    </linearGradient>
    <linearGradient id="image-gradient" x1="0%" y1="0%" x2="100%" y2="0%">
      <stop offset="0%" style="stop-color:#f39c12;stop-opacity:1" />
      <stop offset="100%" style="stop-color:#f8c471;stop-opacity:1" />
    </linearGradient>
    <linearGradient id="deploy-gradient" x1="0%" y1="0%" x2="100%" y2="0%">
      <stop offset="0%" style="stop-color:#34495e;stop-opacity:1" />
      <stop offset="100%" style="stop-color:#7f8c8d;stop-opacity:1" />
    </linearGradient>
  </defs>
  
  <!-- Background -->
  <rect width="1000" height="800" fill="#f9f9f9"/>
  <text x="500" y="40" font-family="Arial" font-size="24" text-anchor="middle" font-weight="bold">Polymarket Pipeline Workflow</text>
  
  <!-- Data Source -->
  <rect x="120" y="100" width="180" height="80" rx="10" ry="10" fill="url(#data-gradient)" stroke="#333" stroke-width="2"/>
  <text x="210" y="145" font-family="Arial" font-size="16" text-anchor="middle" fill="white">Polymarket API</text>
  
  <!-- Pipeline Flow -->
  <!-- 1. Fetch Markets -->
  <rect x="120" y="220" width="180" height="60" rx="8" ry="8" fill="url(#api-gradient)" stroke="#333" stroke-width="2"/>
  <text x="210" y="255" font-family="Arial" font-size="14" text-anchor="middle">Fetch Active Markets</text>

  <!-- Arrow 1 -->
  <line x1="210" y1="180" x2="210" y2="220" stroke="#333" stroke-width="2" marker-end="url(#arrowhead)"/>

  <!-- Database: Processed Markets -->
  <rect x="400" y="100" width="200" height="80" rx="10" ry="10" fill="url(#database-gradient)" stroke="#333" stroke-width="2"/>
  <text x="500" y="145" font-family="Arial" font-size="16" text-anchor="middle" fill="white">PostgreSQL Database</text>
  <text x="500" y="165" font-family="Arial" font-size="12" text-anchor="middle" fill="white">ProcessedMarket Table</text>

  <!-- Arrow 2 -->
  <line x1="300" y1="250" x2="400" y2="250" stroke="#333" stroke-width="2" marker-end="url(#arrowhead)"/>

  <!-- 2. Filter & Track Markets -->
  <rect x="400" y="220" width="200" height="60" rx="8" ry="8" fill="url(#api-gradient)" stroke="#333" stroke-width="2"/>
  <text x="500" y="255" font-family="Arial" font-size="14" text-anchor="middle">Filter & Database Tracking</text>

  <!-- Arrow to DB -->
  <path d="M 500 220 C 500 200, 500 200, 500 180" fill="none" stroke="#333" stroke-width="2" marker-end="url(#arrowhead)"/>

  <!-- 3. Post to Slack -->
  <rect x="400" y="320" width="200" height="60" rx="8" ry="8" fill="url(#action-gradient)" stroke="#333" stroke-width="2"/>
  <text x="500" y="355" font-family="Arial" font-size="14" text-anchor="middle">Post Markets to Slack</text>

  <!-- Arrow 3 -->
  <line x1="500" y1="280" x2="500" y2="320" stroke="#333" stroke-width="2" marker-end="url(#arrowhead)"/>

  <!-- Slack -->
  <rect x="120" y="320" width="180" height="60" rx="10" ry="10" fill="#3F0F3F" stroke="#333" stroke-width="2"/>
  <text x="210" y="355" font-family="Arial" font-size="16" text-anchor="middle" fill="white">Slack Platform</text>

  <!-- Arrow to Slack -->
  <line x1="400" y1="350" x2="300" y2="350" stroke="#333" stroke-width="2" marker-end="url(#arrowhead)"/>

  <!-- 4. Check Market Approvals -->
  <rect x="120" y="420" width="180" height="60" rx="8" ry="8" fill="url(#action-gradient)" stroke="#333" stroke-width="2"/>
  <text x="210" y="445" font-family="Arial" font-size="14" text-anchor="middle">Check Market Approvals</text>
  <text x="210" y="465" font-family="Arial" font-size="12" text-anchor="middle">Reactions (Approval/Rejection)</text>

  <!-- Arrow 4 -->
  <line x1="210" y1="380" x2="210" y2="420" stroke="#333" stroke-width="2" marker-end="url(#arrowhead)"/>

  <!-- 5. Update Database with Approvals -->
  <rect x="400" y="420" width="200" height="60" rx="8" ry="8" fill="url(#database-gradient)" stroke="#333" stroke-width="2"/>
  <text x="500" y="445" font-family="Arial" font-size="14" text-anchor="middle">Update Approval Status</text>
  <text x="500" y="465" font-family="Arial" font-size="12" text-anchor="middle">in ProcessedMarket Table</text>

  <!-- Arrow 5 -->
  <line x1="300" y1="450" x2="400" y2="450" stroke="#333" stroke-width="2" marker-end="url(#arrowhead)"/>
  
  <!-- Arrow back to db -->
  <path d="M 600 450 C 650 450, 650 150, 600 150" fill="none" stroke="#333" stroke-width="2" marker-end="url(#arrowhead)"/>

  <!-- 6. Banner Generation -->
  <rect x="400" y="520" width="200" height="60" rx="8" ry="8" fill="url(#image-gradient)" stroke="#333" stroke-width="2"/>
  <text x="500" y="545" font-family="Arial" font-size="14" text-anchor="middle">Generate Banner Images</text>
  <text x="500" y="565" font-family="Arial" font-size="12" text-anchor="middle">OpenAI DALL-E</text>

  <!-- Arrow 6 -->
  <line x1="500" y1="480" x2="500" y2="520" stroke="#333" stroke-width="2" marker-end="url(#arrowhead)"/>

  <!-- 7. Post Banners to Slack -->
  <rect x="400" y="620" width="200" height="60" rx="8" ry="8" fill="url(#action-gradient)" stroke="#333" stroke-width="2"/>
  <text x="500" y="645" font-family="Arial" font-size="14" text-anchor="middle">Post Banners to Slack</text>
  <text x="500" y="665" font-family="Arial" font-size="12" text-anchor="middle">For Final Approval</text>

  <!-- Arrow 7 -->
  <line x1="500" y1="580" x2="500" y2="620" stroke="#333" stroke-width="2" marker-end="url(#arrowhead)"/>

  <!-- 8. Check Banner Approvals -->
  <rect x="120" y="620" width="180" height="60" rx="8" ry="8" fill="url(#action-gradient)" stroke="#333" stroke-width="2"/>
  <text x="210" y="645" font-family="Arial" font-size="14" text-anchor="middle">Check Banner Approvals</text>
  <text x="210" y="665" font-family="Arial" font-size="12" text-anchor="middle">Reactions (Approval/Rejection)</text>

  <!-- Arrow to check banners -->
  <line x1="400" y1="650" x2="300" y2="650" stroke="#333" stroke-width="2" marker-end="url(#arrowhead)"/>

  <!-- 9. Update Database with Banner Approvals -->
  <rect x="400" y="720" width="200" height="60" rx="8" ry="8" fill="url(#database-gradient)" stroke="#333" stroke-width="2"/>
  <text x="500" y="745" font-family="Arial" font-size="14" text-anchor="middle">Update Banner Status</text>
  <text x="500" y="765" font-family="Arial" font-size="12" text-anchor="middle">Update image_approved field</text>

  <!-- Arrow from check to update -->
  <path d="M 210 680 C 210 720, 350 720, 400 750" fill="none" stroke="#333" stroke-width="2" marker-end="url(#arrowhead)"/>

  <!-- Final Deployment -->
  <rect x="700" y="420" width="200" height="80" rx="10" ry="10" fill="url(#deploy-gradient)" stroke="#333" stroke-width="2"/>
  <text x="800" y="455" font-family="Arial" font-size="16" text-anchor="middle" fill="white">Deploy to ApeChain</text>
  <text x="800" y="475" font-family="Arial" font-size="12" text-anchor="middle" fill="white">Smart Contract Integration</text>

  <!-- Arrow to final deployment -->
  <path d="M 600 750 C 650 750, 800 550, 800 500" fill="none" stroke="#333" stroke-width="2" marker-end="url(#arrowhead)"/>

  <!-- Database Tables -->
  <!-- ProcessedMarket Table -->
  <rect x="700" y="100" width="200" height="240" rx="5" ry="5" fill="#f5f5f5" stroke="#666" stroke-width="1"/>
  <text x="800" y="125" font-family="Arial" font-size="14" text-anchor="middle" font-weight="bold">ProcessedMarket Table</text>
  <line x1="700" y1="135" x2="900" y2="135" stroke="#666" stroke-width="1"/>
  <text x="710" y="155" font-family="Arial" font-size="12">• condition_id (PK)</text>
  <text x="710" y="175" font-family="Arial" font-size="12">• question</text>
  <text x="710" y="195" font-family="Arial" font-size="12">• first_seen</text>
  <text x="710" y="215" font-family="Arial" font-size="12">• approved (bool)</text>
  <text x="710" y="235" font-family="Arial" font-size="12">• message_id</text>
  <text x="710" y="255" font-family="Arial" font-size="12">• image_generated (bool)</text>
  <text x="710" y="275" font-family="Arial" font-size="12">• image_path</text>
  <text x="710" y="295" font-family="Arial" font-size="12">• image_approved (bool)</text>
  <text x="710" y="315" font-family="Arial" font-size="12">• image_uri</text>

  <!-- Legend -->
  <rect x="700" y="620" width="20" height="20" fill="url(#data-gradient)" stroke="#333" stroke-width="1"/>
  <text x="730" y="635" font-family="Arial" font-size="12">Data Source</text>
  
  <rect x="700" y="650" width="20" height="20" fill="url(#api-gradient)" stroke="#333" stroke-width="1"/>
  <text x="730" y="665" font-family="Arial" font-size="12">Data Processing</text>
  
  <rect x="700" y="680" width="20" height="20" fill="url(#action-gradient)" stroke="#333" stroke-width="1"/>
  <text x="730" y="695" font-family="Arial" font-size="12">User Interaction</text>
  
  <rect x="700" y="710" width="20" height="20" fill="url(#database-gradient)" stroke="#333" stroke-width="1"/>
  <text x="730" y="725" font-family="Arial" font-size="12">Database Operation</text>
  
  <rect x="700" y="740" width="20" height="20" fill="url(#image-gradient)" stroke="#333" stroke-width="1"/>
  <text x="730" y="755" font-family="Arial" font-size="12">Image Generation</text>
  
  <rect x="700" y="770" width="20" height="20" fill="url(#deploy-gradient)" stroke="#333" stroke-width="1"/>
  <text x="730" y="785" font-family="Arial" font-size="12">Deployment</text>
</svg>